<mxfile host="app.diagrams.net" modified="2024-01-17T10:21:49.432Z" agent="Mozilla/5.0 (X11; Linux x86_64; rv:121.0) Gecko/20100101 Firefox/121.0" etag="gwAKL2GSUD53NWI05LHb" version="22.1.20" type="github">
  <diagram name="Page-1" id="clxEMwsv4-gXJVvuC8Vo">
    <mxGraphModel dx="1839" dy="526" grid="1" gridSize="10" guides="1" tooltips="1" connect="1" arrows="1" fold="1" page="1" pageScale="1" pageWidth="850" pageHeight="1100" math="0" shadow="0">
      <root>
        <mxCell id="0" />
        <mxCell id="1" parent="0" />
        <mxCell id="x9QNJlmB_tllFK8oiHpg-1" style="edgeStyle=orthogonalEdgeStyle;rounded=0;orthogonalLoop=1;jettySize=auto;html=1;exitX=0.5;exitY=1;exitDx=0;exitDy=0;entryX=0.5;entryY=0;entryDx=0;entryDy=0;" edge="1" parent="1" source="x9QNJlmB_tllFK8oiHpg-5" target="x9QNJlmB_tllFK8oiHpg-14">
          <mxGeometry relative="1" as="geometry" />
        </mxCell>
        <mxCell id="x9QNJlmB_tllFK8oiHpg-2" value="NO" style="edgeLabel;html=1;align=center;verticalAlign=middle;resizable=0;points=[];" vertex="1" connectable="0" parent="x9QNJlmB_tllFK8oiHpg-1">
          <mxGeometry x="-0.4115" y="-2" relative="1" as="geometry">
            <mxPoint x="15" y="2" as="offset" />
          </mxGeometry>
        </mxCell>
        <mxCell id="x9QNJlmB_tllFK8oiHpg-3" style="edgeStyle=orthogonalEdgeStyle;rounded=0;orthogonalLoop=1;jettySize=auto;html=1;exitX=1;exitY=0.5;exitDx=0;exitDy=0;entryX=0;entryY=0.25;entryDx=0;entryDy=0;" edge="1" parent="1" source="x9QNJlmB_tllFK8oiHpg-5" target="x9QNJlmB_tllFK8oiHpg-15">
          <mxGeometry relative="1" as="geometry">
            <mxPoint x="253.49999999999977" y="190" as="targetPoint" />
            <Array as="points">
              <mxPoint x="254" y="160" />
              <mxPoint x="254" y="295" />
            </Array>
          </mxGeometry>
        </mxCell>
        <mxCell id="x9QNJlmB_tllFK8oiHpg-4" value="YES" style="edgeLabel;html=1;align=center;verticalAlign=middle;resizable=0;points=[];" vertex="1" connectable="0" parent="x9QNJlmB_tllFK8oiHpg-3">
          <mxGeometry x="-0.0636" relative="1" as="geometry">
            <mxPoint x="-26" y="-67" as="offset" />
          </mxGeometry>
        </mxCell>
        <mxCell id="x9QNJlmB_tllFK8oiHpg-5" value="&lt;div&gt;Command&amp;nbsp;&lt;/div&gt;&lt;div&gt;for feed forward torque?&lt;/div&gt;" style="rhombus;whiteSpace=wrap;html=1;" vertex="1" parent="1">
          <mxGeometry x="95" y="100" width="120" height="120" as="geometry" />
        </mxCell>
        <mxCell id="x9QNJlmB_tllFK8oiHpg-6" style="edgeStyle=orthogonalEdgeStyle;rounded=0;orthogonalLoop=1;jettySize=auto;html=1;exitX=1;exitY=0.5;exitDx=0;exitDy=0;entryX=0;entryY=0.75;entryDx=0;entryDy=0;" edge="1" parent="1" source="x9QNJlmB_tllFK8oiHpg-9" target="x9QNJlmB_tllFK8oiHpg-15">
          <mxGeometry relative="1" as="geometry">
            <Array as="points">
              <mxPoint x="254" y="455" />
              <mxPoint x="254" y="325" />
            </Array>
          </mxGeometry>
        </mxCell>
        <mxCell id="x9QNJlmB_tllFK8oiHpg-7" value="YES" style="edgeLabel;html=1;align=center;verticalAlign=middle;resizable=0;points=[];" vertex="1" connectable="0" parent="x9QNJlmB_tllFK8oiHpg-6">
          <mxGeometry x="-0.2172" y="1" relative="1" as="geometry">
            <mxPoint x="-21" y="33" as="offset" />
          </mxGeometry>
        </mxCell>
        <mxCell id="x9QNJlmB_tllFK8oiHpg-8" value="NO" style="edgeLabel;html=1;align=center;verticalAlign=middle;resizable=0;points=[];" vertex="1" connectable="0" parent="1">
          <mxGeometry x="174" y="521" as="geometry" />
        </mxCell>
        <mxCell id="x9QNJlmB_tllFK8oiHpg-55" style="edgeStyle=orthogonalEdgeStyle;rounded=0;orthogonalLoop=1;jettySize=auto;html=1;exitX=0.5;exitY=1;exitDx=0;exitDy=0;entryX=0.5;entryY=0;entryDx=0;entryDy=0;" edge="1" parent="1" source="x9QNJlmB_tllFK8oiHpg-9" target="x9QNJlmB_tllFK8oiHpg-53">
          <mxGeometry relative="1" as="geometry" />
        </mxCell>
        <mxCell id="x9QNJlmB_tllFK8oiHpg-9" value="&lt;div&gt;Command&amp;nbsp;&lt;/div&gt;&lt;div&gt;for position, speed&lt;/div&gt;&lt;div&gt;&amp;nbsp;and torque feed forward?&lt;/div&gt;" style="rhombus;whiteSpace=wrap;html=1;" vertex="1" parent="1">
          <mxGeometry x="90" y="395" width="130" height="120" as="geometry" />
        </mxCell>
        <mxCell id="x9QNJlmB_tllFK8oiHpg-10" style="edgeStyle=orthogonalEdgeStyle;rounded=0;orthogonalLoop=1;jettySize=auto;html=1;exitX=0.5;exitY=1;exitDx=0;exitDy=0;" edge="1" parent="1" source="x9QNJlmB_tllFK8oiHpg-14" target="x9QNJlmB_tllFK8oiHpg-9">
          <mxGeometry relative="1" as="geometry" />
        </mxCell>
        <mxCell id="x9QNJlmB_tllFK8oiHpg-11" value="NO" style="edgeLabel;html=1;align=center;verticalAlign=middle;resizable=0;points=[];" vertex="1" connectable="0" parent="x9QNJlmB_tllFK8oiHpg-10">
          <mxGeometry x="0.473" y="-1" relative="1" as="geometry">
            <mxPoint x="14" as="offset" />
          </mxGeometry>
        </mxCell>
        <mxCell id="x9QNJlmB_tllFK8oiHpg-12" style="edgeStyle=orthogonalEdgeStyle;rounded=0;orthogonalLoop=1;jettySize=auto;html=1;exitX=1;exitY=0.5;exitDx=0;exitDy=0;entryX=0;entryY=0.5;entryDx=0;entryDy=0;" edge="1" parent="1" source="x9QNJlmB_tllFK8oiHpg-14" target="x9QNJlmB_tllFK8oiHpg-15">
          <mxGeometry relative="1" as="geometry">
            <mxPoint x="382.74" y="400" as="targetPoint" />
            <Array as="points">
              <mxPoint x="240" y="310" />
              <mxPoint x="240" y="310" />
            </Array>
            <mxPoint x="314.24" y="400" as="sourcePoint" />
          </mxGeometry>
        </mxCell>
        <mxCell id="x9QNJlmB_tllFK8oiHpg-13" value="YES" style="edgeLabel;html=1;align=center;verticalAlign=middle;resizable=0;points=[];" vertex="1" connectable="0" parent="x9QNJlmB_tllFK8oiHpg-12">
          <mxGeometry x="0.4129" y="-2" relative="1" as="geometry">
            <mxPoint x="-33" y="-11" as="offset" />
          </mxGeometry>
        </mxCell>
        <mxCell id="x9QNJlmB_tllFK8oiHpg-14" value="&lt;div&gt;Command&amp;nbsp;&lt;/div&gt;&lt;div&gt;for position and speed?&lt;/div&gt;" style="rhombus;whiteSpace=wrap;html=1;" vertex="1" parent="1">
          <mxGeometry x="95" y="250" width="120" height="120" as="geometry" />
        </mxCell>
        <mxCell id="x9QNJlmB_tllFK8oiHpg-52" style="edgeStyle=orthogonalEdgeStyle;rounded=0;orthogonalLoop=1;jettySize=auto;html=1;exitX=1;exitY=0.5;exitDx=0;exitDy=0;" edge="1" parent="1" source="x9QNJlmB_tllFK8oiHpg-15" target="x9QNJlmB_tllFK8oiHpg-50">
          <mxGeometry relative="1" as="geometry" />
        </mxCell>
        <mxCell id="x9QNJlmB_tllFK8oiHpg-15" value="Parse data &amp;amp; update parameters" style="shape=process;whiteSpace=wrap;html=1;backgroundOutline=1;" vertex="1" parent="1">
          <mxGeometry x="283.5" y="280" width="130" height="60" as="geometry" />
        </mxCell>
        <mxCell id="x9QNJlmB_tllFK8oiHpg-49" style="edgeStyle=orthogonalEdgeStyle;rounded=0;orthogonalLoop=1;jettySize=auto;html=1;exitX=1;exitY=0.5;exitDx=0;exitDy=0;entryX=0;entryY=0.5;entryDx=0;entryDy=0;" edge="1" parent="1" source="x9QNJlmB_tllFK8oiHpg-48" target="x9QNJlmB_tllFK8oiHpg-5">
          <mxGeometry relative="1" as="geometry" />
        </mxCell>
        <mxCell id="x9QNJlmB_tllFK8oiHpg-48" value="Begin" style="ellipse;whiteSpace=wrap;html=1;" vertex="1" parent="1">
          <mxGeometry x="-40" y="135" width="80" height="50" as="geometry" />
        </mxCell>
        <mxCell id="x9QNJlmB_tllFK8oiHpg-50" value="End" style="ellipse;whiteSpace=wrap;html=1;" vertex="1" parent="1">
          <mxGeometry x="413.5" y="565" width="80" height="50" as="geometry" />
        </mxCell>
        <mxCell id="x9QNJlmB_tllFK8oiHpg-51" style="edgeStyle=orthogonalEdgeStyle;rounded=0;orthogonalLoop=1;jettySize=auto;html=1;exitX=1;exitY=0.5;exitDx=0;exitDy=0;entryX=0;entryY=0.5;entryDx=0;entryDy=0;" edge="1" parent="1" source="x9QNJlmB_tllFK8oiHpg-56" target="x9QNJlmB_tllFK8oiHpg-50">
          <mxGeometry relative="1" as="geometry" />
        </mxCell>
        <mxCell id="x9QNJlmB_tllFK8oiHpg-57" style="edgeStyle=orthogonalEdgeStyle;rounded=0;orthogonalLoop=1;jettySize=auto;html=1;exitX=1;exitY=0.5;exitDx=0;exitDy=0;" edge="1" parent="1" source="x9QNJlmB_tllFK8oiHpg-53" target="x9QNJlmB_tllFK8oiHpg-56">
          <mxGeometry relative="1" as="geometry" />
        </mxCell>
        <mxCell id="x9QNJlmB_tllFK8oiHpg-60" style="edgeStyle=orthogonalEdgeStyle;rounded=0;orthogonalLoop=1;jettySize=auto;html=1;exitX=0.5;exitY=1;exitDx=0;exitDy=0;entryX=0.5;entryY=0;entryDx=0;entryDy=0;" edge="1" parent="1" source="x9QNJlmB_tllFK8oiHpg-53" target="x9QNJlmB_tllFK8oiHpg-58">
          <mxGeometry relative="1" as="geometry" />
        </mxCell>
        <mxCell id="x9QNJlmB_tllFK8oiHpg-53" value="&lt;div&gt;Command&amp;nbsp;&lt;/div&gt;Motor stop?" style="rhombus;whiteSpace=wrap;html=1;" vertex="1" parent="1">
          <mxGeometry x="90" y="530" width="130" height="120" as="geometry" />
        </mxCell>
        <mxCell id="x9QNJlmB_tllFK8oiHpg-56" value="Motor stop" style="rounded=0;whiteSpace=wrap;html=1;" vertex="1" parent="1">
          <mxGeometry x="260" y="560" width="120" height="60" as="geometry" />
        </mxCell>
        <mxCell id="x9QNJlmB_tllFK8oiHpg-58" value="&lt;div&gt;Command&amp;nbsp;&lt;/div&gt;&lt;div&gt;request&amp;nbsp;&lt;/div&gt;&lt;div&gt;parameters?&lt;/div&gt;" style="rhombus;whiteSpace=wrap;html=1;" vertex="1" parent="1">
          <mxGeometry x="90" y="670" width="130" height="120" as="geometry" />
        </mxCell>
        <mxCell id="x9QNJlmB_tllFK8oiHpg-61" value="NO" style="edgeLabel;html=1;align=center;verticalAlign=middle;resizable=0;points=[];" vertex="1" connectable="0" parent="1">
          <mxGeometry x="168" y="658" as="geometry" />
        </mxCell>
        <mxCell id="x9QNJlmB_tllFK8oiHpg-65" style="edgeStyle=orthogonalEdgeStyle;rounded=0;orthogonalLoop=1;jettySize=auto;html=1;exitX=1;exitY=0.5;exitDx=0;exitDy=0;" edge="1" parent="1" source="x9QNJlmB_tllFK8oiHpg-63" target="x9QNJlmB_tllFK8oiHpg-50">
          <mxGeometry relative="1" as="geometry" />
        </mxCell>
        <mxCell id="x9QNJlmB_tllFK8oiHpg-63" value="Sending parameters " style="rounded=0;whiteSpace=wrap;html=1;" vertex="1" parent="1">
          <mxGeometry x="260" y="700" width="120" height="60" as="geometry" />
        </mxCell>
        <mxCell id="x9QNJlmB_tllFK8oiHpg-64" style="edgeStyle=orthogonalEdgeStyle;rounded=0;orthogonalLoop=1;jettySize=auto;html=1;exitX=1;exitY=0.5;exitDx=0;exitDy=0;entryX=0;entryY=0.5;entryDx=0;entryDy=0;" edge="1" parent="1" source="x9QNJlmB_tllFK8oiHpg-58" target="x9QNJlmB_tllFK8oiHpg-63">
          <mxGeometry relative="1" as="geometry" />
        </mxCell>
      </root>
    </mxGraphModel>
  </diagram>
</mxfile>
